<?xml version="1.0" encoding="utf-8" standalone="no"?>
<!DOCTYPE svg PUBLIC "-//W3C//DTD SVG 1.1//EN"
  "http://www.w3.org/Graphics/SVG/1.1/DTD/svg11.dtd">
<svg xmlns:xlink="http://www.w3.org/1999/xlink" width="154.538978pt" height="332.64pt" viewBox="0 0 154.538978 332.64" xmlns="http://www.w3.org/2000/svg" version="1.1">
 <metadata>
  <rdf:RDF xmlns:dc="http://purl.org/dc/elements/1.1/" xmlns:cc="http://creativecommons.org/ns#" xmlns:rdf="http://www.w3.org/1999/02/22-rdf-syntax-ns#">
   <cc:Work>
    <dc:type rdf:resource="http://purl.org/dc/dcmitype/StillImage"/>
    <dc:date>2023-10-08T12:11:55.249670</dc:date>
    <dc:format>image/svg+xml</dc:format>
    <dc:creator>
     <cc:Agent>
      <dc:title>Matplotlib v3.6.1, https://matplotlib.org/</dc:title>
     </cc:Agent>
    </dc:creator>
   </cc:Work>
  </rdf:RDF>
 </metadata>
 <defs>
  <style type="text/css">*{stroke-linejoin: round; stroke-linecap: butt}</style>
 </defs>
 <g id="figure_1">
  <g id="patch_1">
   <path d="M 0 332.64 
L 154.538978 332.64 
L 154.538978 0 
L 0 0 
z
" style="fill: #ffffff"/>
  </g>
  <g id="axes_1">
   <g id="patch_2">
    <path d="M 92.264754 225.456641 
L 93.485101 220.670544 
L 94.584683 215.872676 
L 95.559072 211.082358 
L 96.404346 206.318878 
L 97.117099 201.601416 
L 97.694464 196.948969 
L 98.134114 192.38027 
L 98.434279 187.913716 
L 98.593751 183.567292 
L 98.611887 179.358499 
L 98.488615 175.304285 
L 98.224431 171.420975 
L 97.820398 167.724205 
L 97.278144 164.228861 
L 96.599851 160.949018 
L 95.788252 157.897882 
L 94.846614 155.087739 
L 93.778729 152.529905 
L 92.588897 150.234678 
L 91.281909 148.211302 
L 89.863028 146.467924 
L 88.337966 145.011563 
L 86.712866 143.848083 
L 84.99427 142.982171 
L 83.189099 142.417312 
L 81.304621 142.155781 
L 79.348425 142.198631 
L 77.328388 142.545689 
L 75.252643 143.195558 
L 73.12955 144.145622 
L 70.967656 145.392054 
L 68.775667 146.929836 
L 66.562409 148.752775 
L 64.336795 150.853532 
L 62.107786 153.223647 
L 59.884358 155.853576 
L 57.675463 158.73273 
L 55.489996 161.849516 
L 53.336758 165.191383 
L 51.224417 168.744875 
L 49.161481 172.495683 
L 47.156256 176.428704 
L 45.216815 180.528101 
L 43.35097 184.777368 
L 41.566231 189.159393 
L 39.869788 193.656532 
L 38.268469 198.250677 
L 36.768723 202.923328 
L 35.37659 207.655671 
L 34.097674 212.428651 
L 32.937125 217.223047 
L 31.899617 222.019554 
L 30.989328 226.79886 
L 30.209921 231.541719 
L 29.564537 236.229033 
L 29.055774 240.841928 
L 28.68568 245.36183 
L 28.455746 249.770539 
L 28.366897 254.050302 
L 28.419492 258.183887 
L 28.613317 262.154648 
L 28.947594 265.946597 
L 29.420976 269.544465 
L 30.031557 272.933765 
L 30.776878 276.100849 
L 31.653938 279.032965 
L 32.659205 281.718306 
L 33.788632 284.146058 
L 35.037671 286.306447 
L 36.401293 288.190773 
L 37.874006 289.791449 
L 39.44988 291.102029 
L 41.12257 292.117236 
L 42.885341 292.832982 
L 44.731095 293.246385 
L 46.652399 293.355781 
L 48.641517 293.160728 
L 50.690439 292.662013 
L 52.790916 291.861644 
L 54.934489 290.762843 
L 57.112527 289.370035 
L 59.31626 287.688828 
L 61.536813 285.725992 
L 63.765247 283.48943 
L 65.992587 280.988148 
L 68.209865 278.232219 
L 70.408152 275.232739 
L 72.578598 272.001786 
L 74.712462 268.552369 
L 76.801152 264.89838 
L 78.836257 261.05453 
L 80.809583 257.036298 
L 82.713185 252.859864 
L 84.539396 248.542044 
L 86.280864 244.100226 
L 87.930576 239.552294 
L 89.481889 234.916562 
L 90.928557 230.211696 
L 92.264754 225.456641 
z
" clip-path="url(#pc4a262f9a8)" style="fill: #ff0000; opacity: 0.7; stroke: #ff0000; stroke-linejoin: miter"/>
   </g>
   <g id="patch_3">
    <path d="M 134.820214 181.721721 
L 137.260907 172.149526 
L 139.46007 162.553791 
L 141.408849 152.973154 
L 143.099396 143.446194 
L 144.524904 134.011271 
L 145.679633 124.706377 
L 146.558932 115.568979 
L 147.159263 106.635871 
L 147.478207 97.943022 
L 147.514479 89.525437 
L 147.267935 81.417009 
L 146.739566 73.650388 
L 145.931501 66.256849 
L 144.846992 59.266161 
L 143.490407 52.706474 
L 141.867209 46.604202 
L 139.983934 40.983916 
L 137.848164 35.868248 
L 135.468499 31.277795 
L 132.854523 27.231043 
L 130.01676 23.744286 
L 126.966637 20.831564 
L 123.716436 18.504606 
L 120.279244 16.77278 
L 116.668902 15.643062 
L 112.899947 15.12 
L 108.987555 15.2057 
L 104.947481 15.899816 
L 100.795992 17.199555 
L 96.549804 19.099682 
L 92.226016 21.592546 
L 87.842039 24.66811 
L 83.415524 28.313989 
L 78.964295 32.515502 
L 74.506278 37.255732 
L 70.059421 42.515591 
L 65.641631 48.2739 
L 61.270698 54.507471 
L 56.96422 61.191206 
L 52.739539 68.298189 
L 48.613667 75.799805 
L 44.603216 83.665847 
L 40.724335 91.864641 
L 36.992644 100.363174 
L 33.423168 109.127224 
L 30.03028 118.121502 
L 26.827643 127.309792 
L 23.828151 136.655095 
L 21.043884 146.119781 
L 18.486052 155.66574 
L 16.164955 165.254532 
L 14.089939 174.847547 
L 12.26936 184.406159 
L 10.710548 193.891876 
L 9.41978 203.266504 
L 8.402253 212.492295 
L 7.662065 221.532099 
L 7.202197 230.349517 
L 7.024499 238.909043 
L 7.129688 247.176212 
L 7.51734 255.117734 
L 8.185893 262.701633 
L 9.132657 269.897369 
L 10.353818 276.675969 
L 11.84446 283.010137 
L 13.59858 288.874369 
L 15.609115 294.24505 
L 17.86797 299.100555 
L 20.366048 303.421333 
L 23.09329 307.189985 
L 26.038716 310.391336 
L 29.190465 313.012496 
L 32.535846 315.04291 
L 36.061388 316.474402 
L 39.752895 317.301209 
L 43.595503 317.52 
L 47.573739 317.129895 
L 51.671584 316.132466 
L 55.872537 314.531727 
L 60.159683 312.334125 
L 64.515759 309.548508 
L 68.923224 306.186094 
L 73.364332 302.260422 
L 77.821199 297.787298 
L 82.275879 292.784735 
L 86.710434 287.272876 
L 91.107009 281.273916 
L 95.447901 274.81201 
L 99.715628 267.913177 
L 103.893008 260.605198 
L 107.963219 252.917499 
L 111.909871 244.881035 
L 115.717074 236.528166 
L 119.369497 227.892527 
L 122.852432 219.00889 
L 126.151856 209.913027 
L 129.254483 200.641563 
L 132.147819 191.231831 
L 134.820214 181.721721 
z
" clip-path="url(#pc4a262f9a8)" style="fill: #ffa500; opacity: 0.5; stroke: #ffa500; stroke-linejoin: miter"/>
   </g>
   <g id="PathCollection_1">
    <defs>
     <path id="m23e12957b9" d="M 0 2.5 
C 0.663008 2.5 1.29895 2.236584 1.767767 1.767767 
C 2.236584 1.29895 2.5 0.663008 2.5 0 
C 2.5 -0.663008 2.236584 -1.29895 1.767767 -1.767767 
C 1.29895 -2.236584 0.663008 -2.5 0 -2.5 
C -0.663008 -2.5 -1.29895 -2.236584 -1.767767 -1.767767 
C -2.236584 -1.29895 -2.5 -0.663008 -2.5 0 
C -2.5 0.663008 -2.236584 1.29895 -1.767767 1.767767 
C -1.29895 2.236584 -0.663008 2.5 0 2.5 
z
" style="stroke: #ff0000"/>
    </defs>
    <g clip-path="url(#pc4a262f9a8)">
     <use xlink:href="#m23e12957b9" x="49.709295" y="269.191561" style="fill: #ff0000; stroke: #ff0000"/>
    </g>
   </g>
   <g id="line2d_1">
    <path d="M 92.264754 225.456641 
L 93.485101 220.670544 
L 94.584683 215.872676 
L 95.559072 211.082358 
L 96.404346 206.318878 
L 97.117099 201.601416 
L 97.694464 196.948969 
L 98.134114 192.38027 
L 98.434279 187.913716 
L 98.593751 183.567292 
L 98.611887 179.358499 
L 98.488615 175.304285 
L 98.224431 171.420975 
L 97.820398 167.724205 
L 97.278144 164.228861 
L 96.599851 160.949018 
L 95.788252 157.897882 
L 94.846614 155.087739 
L 93.778729 152.529905 
L 92.588897 150.234678 
L 91.281909 148.211302 
L 89.863028 146.467924 
L 88.337966 145.011563 
L 86.712866 143.848083 
L 84.99427 142.982171 
L 83.189099 142.417312 
L 81.304621 142.155781 
L 79.348425 142.198631 
L 77.328388 142.545689 
L 75.252643 143.195558 
L 73.12955 144.145622 
L 70.967656 145.392054 
L 68.775667 146.929836 
L 66.562409 148.752775 
L 64.336795 150.853532 
L 62.107786 153.223647 
L 59.884358 155.853576 
L 57.675463 158.73273 
L 55.489996 161.849516 
L 53.336758 165.191383 
L 51.224417 168.744875 
L 49.161481 172.495683 
L 47.156256 176.428704 
L 45.216815 180.528101 
L 43.35097 184.777368 
L 41.566231 189.159393 
L 39.869788 193.656532 
L 38.268469 198.250677 
L 36.768723 202.923328 
L 35.37659 207.655671 
L 34.097674 212.428651 
L 32.937125 217.223047 
L 31.899617 222.019554 
L 30.989328 226.79886 
L 30.209921 231.541719 
L 29.564537 236.229033 
L 29.055774 240.841928 
L 28.68568 245.36183 
L 28.455746 249.770539 
L 28.366897 254.050302 
L 28.419492 258.183887 
L 28.613317 262.154648 
L 28.947594 265.946597 
L 29.420976 269.544465 
L 30.031557 272.933765 
L 30.776878 276.100849 
L 31.653938 279.032965 
L 32.659205 281.718306 
L 33.788632 284.146058 
L 35.037671 286.306447 
L 36.401293 288.190773 
L 37.874006 289.791449 
L 39.44988 291.102029 
L 41.12257 292.117236 
L 42.885341 292.832982 
L 44.731095 293.246385 
L 46.652399 293.355781 
L 48.641517 293.160728 
L 50.690439 292.662013 
L 52.790916 291.861644 
L 54.934489 290.762843 
L 57.112527 289.370035 
L 59.31626 287.688828 
L 61.536813 285.725992 
L 63.765247 283.48943 
L 65.992587 280.988148 
L 68.209865 278.232219 
L 70.408152 275.232739 
L 72.578598 272.001786 
L 74.712462 268.552369 
L 76.801152 264.89838 
L 78.836257 261.05453 
L 80.809583 257.036298 
L 82.713185 252.859864 
L 84.539396 248.542044 
L 86.280864 244.100226 
L 87.930576 239.552294 
L 89.481889 234.916562 
L 90.928557 230.211696 
L 92.264754 225.456641 
" clip-path="url(#pc4a262f9a8)" style="fill: none; stroke: #ff0000; stroke-width: 1.5; stroke-linecap: square"/>
   </g>
   <g id="line2d_2">
    <path d="M 134.820214 181.721721 
L 137.260907 172.149526 
L 139.46007 162.553791 
L 141.408849 152.973154 
L 143.099396 143.446194 
L 144.524904 134.011271 
L 145.679633 124.706377 
L 146.558932 115.568979 
L 147.159263 106.635871 
L 147.478207 97.943022 
L 147.514479 89.525437 
L 147.267935 81.417009 
L 146.739566 73.650388 
L 145.931501 66.256849 
L 144.846992 59.266161 
L 143.490407 52.706474 
L 141.867209 46.604202 
L 139.983934 40.983916 
L 137.848164 35.868248 
L 135.468499 31.277795 
L 132.854523 27.231043 
L 130.01676 23.744286 
L 126.966637 20.831564 
L 123.716436 18.504606 
L 120.279244 16.77278 
L 116.668902 15.643062 
L 112.899947 15.12 
L 108.987555 15.2057 
L 104.947481 15.899816 
L 100.795992 17.199555 
L 96.549804 19.099682 
L 92.226016 21.592546 
L 87.842039 24.66811 
L 83.415524 28.313989 
L 78.964295 32.515502 
L 74.506278 37.255732 
L 70.059421 42.515591 
L 65.641631 48.2739 
L 61.270698 54.507471 
L 56.96422 61.191206 
L 52.739539 68.298189 
L 48.613667 75.799805 
L 44.603216 83.665847 
L 40.724335 91.864641 
L 36.992644 100.363174 
L 33.423168 109.127224 
L 30.03028 118.121502 
L 26.827643 127.309792 
L 23.828151 136.655095 
L 21.043884 146.119781 
L 18.486052 155.66574 
L 16.164955 165.254532 
L 14.089939 174.847547 
L 12.26936 184.406159 
L 10.710548 193.891876 
L 9.41978 203.266504 
L 8.402253 212.492295 
L 7.662065 221.532099 
L 7.202197 230.349517 
L 7.024499 238.909043 
L 7.129688 247.176212 
L 7.51734 255.117734 
L 8.185893 262.701633 
L 9.132657 269.897369 
L 10.353818 276.675969 
L 11.84446 283.010137 
L 13.59858 288.874369 
L 15.609115 294.24505 
L 17.86797 299.100555 
L 20.366048 303.421333 
L 23.09329 307.189985 
L 26.038716 310.391336 
L 29.190465 313.012496 
L 32.535846 315.04291 
L 36.061388 316.474402 
L 39.752895 317.301209 
L 43.595503 317.52 
L 47.573739 317.129895 
L 51.671584 316.132466 
L 55.872537 314.531727 
L 60.159683 312.334125 
L 64.515759 309.548508 
L 68.923224 306.186094 
L 73.364332 302.260422 
L 77.821199 297.787298 
L 82.275879 292.784735 
L 86.710434 287.272876 
L 91.107009 281.273916 
L 95.447901 274.81201 
L 99.715628 267.913177 
L 103.893008 260.605198 
L 107.963219 252.917499 
L 111.909871 244.881035 
L 115.717074 236.528166 
L 119.369497 227.892527 
L 122.852432 219.00889 
L 126.151856 209.913027 
L 129.254483 200.641563 
L 132.147819 191.231831 
L 134.820214 181.721721 
" clip-path="url(#pc4a262f9a8)" style="fill: none; stroke: #000000; stroke-width: 1.5; stroke-linecap: square"/>
   </g>
  </g>
 </g>
 <defs>
  <clipPath id="pc4a262f9a8">
   <rect x="0" y="-0" width="154.538978" height="332.64"/>
  </clipPath>
 </defs>
</svg>
